<svg width="87" height="77" viewBox="0 0 87 77" fill="none" xmlns="http://www.w3.org/2000/svg">
<path d="M1 24.1572V74C1 75.1046 1.89543 76 3 76H19.5C20.6046 76 21.5 75.1046 21.5 74V57.962C21.5 57.658 21.4307 57.358 21.2973 57.0848L4.79733 23.2799C3.86706 21.374 1 22.0363 1 24.1572Z" fill="black" stroke="black"/>
<path d="M1 3.54271V3C1 1.89543 1.89543 1 3 1H20.7514C21.5154 1 22.2128 1.43534 22.5483 2.12182L54.0659 66.6117C54.3395 67.1716 54.3365 67.827 54.0578 68.3843L51.0528 74.3944C50.714 75.072 50.0215 75.5 49.2639 75.5H36.7556C35.9879 75.5 35.288 75.0606 34.9543 74.3691L1.19873 4.41185C1.06793 4.14078 1 3.84369 1 3.54271Z" fill="black" stroke="black"/>
<path d="M64.9777 2.20416L47.8868 41.6082C47.6426 42.1713 47.6704 42.8152 47.9622 43.3551L55.6714 57.6172C56.4412 59.0413 58.4957 59.0085 59.2197 57.5606L61.7111 52.5777C62.655 50.6901 65.5 51.3617 65.5 53.4721V73.5C65.5 74.6046 66.3954 75.5 67.5 75.5H84C85.1046 75.5 86 74.6046 86 73.5V3C86 1.89543 85.1046 1 84 1H66.8126C66.0157 1 65.2948 1.47308 64.9777 2.20416Z" fill="black" stroke="black"/>
</svg>
