<svg width="144" height="156" viewBox="0 0 144 156" fill="none" xmlns="http://www.w3.org/2000/svg">
<g clip-path="url(#clip0_126_61)">
<path d="M48.6813 12.8324C59.795 -3.76876 84.205 -3.76877 95.3187 12.8324V12.8324C100.162 20.0675 108.09 24.6445 116.777 25.2216V25.2216C136.711 26.5458 148.916 47.6854 140.096 65.6108V65.6108C136.252 73.423 136.252 82.577 140.096 90.3892V90.3892C148.916 108.315 136.711 129.454 116.777 130.778V130.778C108.09 131.355 100.162 135.932 95.3187 143.168V143.168C84.205 159.769 59.795 159.769 48.6813 143.168V143.168C43.8377 135.932 35.9102 131.355 27.2226 130.778V130.778C7.28865 129.454 -4.91631 108.315 3.90389 90.3892V90.3892C7.74789 82.577 7.74789 73.423 3.90389 65.6108V65.6108C-4.91631 47.6854 7.28865 26.5458 27.2226 25.2216V25.2216C35.9102 24.6445 43.8377 20.0675 48.6813 12.8324V12.8324Z" fill="#0C0027"/>
<path d="M112 81.6036C111.299 89.185 108.454 96.4102 103.797 102.434C99.14 108.457 92.8638 113.029 85.7029 115.616C78.542 118.203 70.7925 118.696 63.3613 117.039C55.93 115.382 49.1244 111.643 43.7406 106.259C38.3569 100.876 34.6178 94.07 32.9608 86.6387C31.3038 79.2075 31.7975 71.458 34.3841 64.2971C36.9706 57.1362 41.5431 50.86 47.5665 46.203C53.5898 41.5459 60.815 38.7006 68.3964 38C63.9577 44.005 61.8218 51.4038 62.3771 58.8505C62.9324 66.2973 66.1421 73.2974 71.4224 78.5776C76.7026 83.8579 83.7027 87.0676 91.1495 87.6229C98.5962 88.1782 105.995 86.0423 112 81.6036Z" fill="#C3B893" stroke="#C3B893" stroke-width="7" stroke-linecap="round" stroke-linejoin="round"/>
</g>
<defs>
<clipPath id="clip0_126_61">
<rect width="144" height="156" fill="white"/>
</clipPath>
</defs>
</svg>
