<svg width="95" height="101" viewBox="0 0 95 101" fill="none" xmlns="http://www.w3.org/2000/svg">
<path d="M35.514 83.0166C13.7191 89.5083 13.7191 72.197 5.00116 70.0331M66.0268 96V79.2514C66.1903 77.1877 65.9095 75.1131 65.203 73.1656C64.4965 71.218 63.3806 69.442 61.9294 67.9558C75.6165 66.4411 90.0012 61.291 90.0012 37.6611C90 31.6187 87.6591 25.8081 83.4627 21.4318C85.4498 16.1454 85.3093 10.3022 83.0704 5.11596C83.0704 5.11596 77.9268 3.60122 66.0268 11.5211C56.0361 8.83277 45.5047 8.83277 35.514 11.5211C23.614 3.60122 18.4704 5.11596 18.4704 5.11596C16.2315 10.3022 16.091 16.1454 18.0781 21.4318C13.8504 25.8405 11.507 31.7037 11.5396 37.7909C11.5396 61.2477 25.9242 66.3978 39.6114 68.0856C38.1773 69.5569 37.0713 71.3116 36.3653 73.2354C35.6594 75.1591 35.3693 77.2089 35.514 79.2514V96" stroke="#3B5353" stroke-width="10" stroke-linecap="round" stroke-linejoin="round"/>
</svg>
