<svg width="100" height="100" viewBox="0 0 100 100" fill="none" xmlns="http://www.w3.org/2000/svg">
<path d="M74.75 25.25H74.795M27.5 5H72.5C84.9264 5 95 15.0736 95 27.5V72.5C95 84.9264 84.9264 95 72.5 95H27.5C15.0736 95 5 84.9264 5 72.5V27.5C5 15.0736 15.0736 5 27.5 5ZM68 47.165C68.5554 50.9101 67.9157 54.735 66.1719 58.0956C64.4282 61.4562 61.6692 64.1814 58.2873 65.8835C54.9055 67.5857 51.073 68.1782 47.335 67.5767C43.5971 66.9752 40.1439 65.2104 37.4668 62.5332C34.7896 59.8561 33.0248 56.4029 32.4233 52.665C31.8218 48.927 32.4143 45.0945 34.1165 41.7127C35.8186 38.3308 38.5438 35.5718 41.9044 33.8281C45.265 32.0843 49.0899 31.4446 52.835 32C56.6552 32.5665 60.1918 34.3466 62.9226 37.0774C65.6534 39.8082 67.4335 43.3448 68 47.165Z" stroke="#713D3D" stroke-width="10" stroke-linecap="round" stroke-linejoin="round"/>
</svg>
