<svg width="44" height="39" viewBox="0 0 44 39" fill="none" xmlns="http://www.w3.org/2000/svg">
<path d="M9.58038 3.46869C14.5407 7.19259 19.8758 14.7434 21.8348 18.7952C23.7939 14.7434 29.129 7.19259 34.0893 3.46869C37.6684 0.781655 43.4677 -1.29738 43.4677 5.3183C43.4677 6.63958 42.7101 16.4175 42.2658 18.0051C40.7214 23.524 35.0938 24.9316 30.0878 24.0797C38.8381 25.5689 41.064 30.5018 36.2567 35.4347C27.1267 44.8032 23.1344 33.0841 22.1114 30.0812C21.9239 29.5308 21.8361 29.2732 21.8348 29.4922C21.8335 29.2732 21.7458 29.5308 21.5583 30.0812C20.5353 33.0841 16.5429 44.8032 7.41299 35.4347C2.60571 30.5018 4.8316 25.5689 13.5818 24.0797C8.57583 24.9316 2.94825 23.524 1.40387 18.0051C0.959556 16.4175 0.202026 6.63958 0.202026 5.3183C0.202026 -1.29738 6.0013 0.781655 9.58038 3.46869Z" fill="#E84D58"/>
</svg>
