<svg width="44" height="47" viewBox="0 0 44 47" fill="none" xmlns="http://www.w3.org/2000/svg">
<path d="M16.202 38.9519C6.20203 41.9519 6.20203 33.9519 2.20203 32.9519M30.202 44.9519V37.2119C30.277 36.2582 30.1482 35.2995 29.8241 34.3995C29.4999 33.4994 28.9879 32.6787 28.322 31.9919C34.602 31.2919 41.202 28.9119 41.202 17.9919C41.2015 15.1995 40.1274 12.5143 38.202 10.4919C39.1137 8.04888 39.0493 5.34857 38.022 2.95187C38.022 2.95187 35.662 2.25187 30.202 5.91187C25.618 4.66951 20.786 4.66951 16.202 5.91187C10.742 2.25187 8.38203 2.95187 8.38203 2.95187C7.35478 5.34857 7.29031 8.04888 8.20203 10.4919C6.26228 12.5293 5.18707 15.2388 5.20203 18.0519C5.20203 28.8919 11.802 31.2719 18.082 32.0519C17.424 32.7318 16.9166 33.5427 16.5926 34.4317C16.2687 35.3207 16.1356 36.268 16.202 37.2119V44.9519" stroke="#E84D58" stroke-width="4" stroke-linecap="round" stroke-linejoin="round"/>
</svg>
