<svg width="45" height="45" viewBox="0 0 45 45" fill="none" xmlns="http://www.w3.org/2000/svg">
<path d="M33.202 11.9519H33.222M12.202 2.95187H32.202C37.7249 2.95187 42.202 7.42903 42.202 12.9519V32.9519C42.202 38.4747 37.7249 42.9519 32.202 42.9519H12.202C6.67918 42.9519 2.20203 38.4747 2.20203 32.9519V12.9519C2.20203 7.42903 6.67918 2.95187 12.202 2.95187ZM30.202 21.6919C30.4488 23.3564 30.1645 25.0563 29.3895 26.5499C28.6145 28.0435 27.3883 29.2547 25.8853 30.0112C24.3822 30.7677 22.6789 31.0311 21.0176 30.7637C19.3563 30.4964 17.8215 29.712 16.6317 28.5222C15.4419 27.3324 14.6575 25.7976 14.3902 24.1363C14.1228 22.475 14.3862 20.7717 15.1427 19.2686C15.8992 17.7656 17.1104 16.5394 18.604 15.7644C20.0976 14.9894 21.7975 14.7051 23.462 14.9519C25.1599 15.2036 26.7317 15.9948 27.9454 17.2085C29.1591 18.4222 29.9503 19.994 30.202 21.6919Z" stroke="#E84D58" stroke-width="4" stroke-linecap="round" stroke-linejoin="round"/>
</svg>
