<svg width="49" height="52" viewBox="0 0 49 52" fill="none" xmlns="http://www.w3.org/2000/svg">
<path d="M48.0083 11.6377C47.269 6.20152 42.4793 1.91744 36.8014 1.0873C35.8435 0.947026 32.214 0.436523 23.8064 0.436523H23.7436C15.3338 0.436523 13.5295 0.947026 12.5716 1.0873C7.05176 1.89445 2.01096 5.74391 0.787955 11.2444C0.199705 13.9533 0.136927 16.9566 0.246207 19.7114C0.401989 23.6621 0.432215 27.6058 0.79493 31.5404C1.04568 34.1539 1.48312 36.7466 2.10396 39.2991C3.26651 44.0132 7.97251 47.9362 12.5832 49.5368C17.5196 51.2059 22.8283 51.4829 27.9149 50.337C28.4744 50.2082 29.0278 50.0587 29.575 49.8886C30.8096 49.5 32.2582 49.0653 33.3231 48.3019C33.3377 48.2912 33.3497 48.2773 33.3581 48.2614C33.3665 48.2455 33.3713 48.2278 33.3718 48.2099V44.3972C33.3716 44.3804 33.3676 44.3639 33.36 44.3489C33.3524 44.3338 33.3416 44.3206 33.3282 44.3103C33.3148 44.2999 33.2993 44.2926 33.2827 44.2889C33.2661 44.2853 33.2489 44.2854 33.2324 44.2891C29.9734 45.0591 26.6339 45.445 23.2833 45.4389C17.5171 45.4389 15.9662 42.7324 15.5221 41.6055C15.1651 40.6317 14.9384 39.6159 14.8478 38.5839C14.8469 38.5666 14.8501 38.5493 14.8572 38.5334C14.8643 38.5176 14.8751 38.5036 14.8887 38.4926C14.9023 38.4816 14.9183 38.474 14.9354 38.4703C14.9526 38.4665 14.9703 38.4669 14.9873 38.4713C18.192 39.236 21.4771 39.6219 24.7737 39.6211C25.5665 39.6211 26.357 39.6211 27.1499 39.6004C30.4655 39.5084 33.9601 39.3405 37.2222 38.7104C37.3036 38.6943 37.385 38.6805 37.4548 38.6598C42.6002 37.6825 47.4968 34.6149 47.9944 26.847C48.013 26.5411 48.0595 23.6437 48.0595 23.3264C48.0619 22.2478 48.4106 15.6757 48.0083 11.6377ZM40.0891 31.0207H34.6786V17.9132C34.6786 15.1537 33.516 13.7464 31.1514 13.7464C28.5519 13.7464 27.2499 15.4113 27.2499 18.6996V25.8742H21.872V18.6996C21.872 15.4113 20.5676 13.7464 17.9681 13.7464C15.6174 13.7464 14.4432 15.1537 14.4409 17.9132V31.0207H9.03506V17.5154C9.03506 14.7559 9.74735 12.5636 11.1718 10.9386C12.6413 9.31742 14.5688 8.48501 16.9614 8.48501C19.7305 8.48501 21.8231 9.53815 23.2182 11.6423L24.5644 13.8775L25.913 11.6423C27.308 9.53815 29.4006 8.48501 32.1652 8.48501C34.5554 8.48501 36.4828 9.31742 37.9569 10.9386C39.3815 12.5621 40.0937 14.7543 40.0937 17.5154L40.0891 31.0207Z" fill="#E84D58"/>
</svg>
