<svg width="49" height="36" viewBox="0 0 49 36" fill="none" xmlns="http://www.w3.org/2000/svg">
<path d="M45.2821 7.79187C45.0445 6.84269 44.5606 5.97302 43.8794 5.27069C43.1981 4.56835 42.3436 4.05824 41.4021 3.79187C37.9621 2.95187 24.2021 2.95187 24.2021 2.95187C24.2021 2.95187 10.4421 2.95187 7.00207 3.87187C6.06057 4.13824 5.20603 4.64835 4.52476 5.35069C3.8435 6.05302 3.35965 6.92269 3.12207 7.87187C2.4925 11.363 2.18454 14.9045 2.20207 18.4519C2.17963 22.026 2.48761 25.5945 3.12207 29.1119C3.38399 30.0316 3.87868 30.8682 4.55836 31.5408C5.23803 32.2135 6.07971 32.6995 7.00207 32.9519C10.4421 33.8719 24.2021 33.8719 24.2021 33.8719C24.2021 33.8719 37.9621 33.8719 41.4021 32.9519C42.3436 32.6855 43.1981 32.1754 43.8794 31.4731C44.5606 30.7707 45.0445 29.9011 45.2821 28.9519C45.9068 25.4871 46.2147 21.9725 46.2021 18.4519C46.2245 14.8778 45.9165 11.3093 45.2821 7.79187Z" stroke="#E84D58" stroke-width="4" stroke-linecap="round" stroke-linejoin="round"/>
<path d="M19.7021 24.9919L31.2021 18.4519L19.7021 11.9119V24.9919Z" stroke="#E84D58" stroke-width="4" stroke-linecap="round" stroke-linejoin="round"/>
</svg>
